PathFileType	4	(X/Y/Z)	56_2_50_p0_0-475.trc
DataRate	CameraRate	NumFrames	NumMarkers	Units	OrigDataRate	OrigDataStartFrame	OrigNumFrames
51.0	51.0	4	27	m	51.0	0	476
Frame#	Time	RHip			RKnee			RAnkle			RBigToe			RSmallToe			RHeel			LHip			LKnee			LAnkle			LBigToe			LSmallToe			LHeel			Neck			Head			Nose			RShoulder			RElbow			RWrist			RThumb			RIndex			RPinky			LShoulder			LElbow			LWrist			LThumb			LIndex			LPinky			
		X1	Y1	Z1	X2	Y2	Z2	X3	Y3	Z3	X4	Y4	Z4	X5	Y5	Z5	X6	Y6	Z6	X7	Y7	Z7	X8	Y8	Z8	X9	Y9	Z9	X10	Y10	Z10	X11	Y11	Z11	X12	Y12	Z12	X13	Y13	Z13	X14	Y14	Z14	X15	Y15	Z15	X16	Y16	Z16	X17	Y17	Z17	X18	Y18	Z18	X19	Y19	Z19	X20	Y20	Z20	X21	Y21	Z21	X22	Y22	Z22	X23	Y23	Z23	X24	Y24	Z24	X25	Y25	Z25	X26	Y26	Z26	X27	Y27	Z27	
0	0.0	0.4555821099241253	0.6853179205078677	0.29260777820140343	0.44615409951342483	0.8131434525492732	0.6694369640185631	0.49754585303131593	1.0975529213416833	1.077636643124511	0.4065757698296865	0.8657671808026981	1.1361436201248798	0.4785499603182605	0.9308996420767955	1.1588744563413793	0.5099592760062219	1.1698811585072817	1.115618587690646	0.2577574034349022	0.7717973933449409	0.2797885839096955	0.2980490761852577	0.9407869724268547	0.6545760534931441	0.33154052792732575	1.1072778309962994	1.0188231699064547	0.2501420872257776	0.9202544080951813	1.1197630749449372	0.22914397643815115	0.9973252973460156	1.120429932604764	0.36281628495562046	1.1923611275204262	1.0713885635065072	0.3466006319015974	0.5280114462236715	-0.23201436361529104	0.3282689575679174	0.39743020724985134	-0.45081075264372095	0.28875060446329026	0.3644827536628069	-0.3072313628741348	0.48137636927235117	0.4951982875791513	-0.1149610904194157	0.5288431911338457	0.5608693905589599	0.15278496449992937	0.375476603929398	0.5648676987593481	0.31255698143192695	0.2831841374348516	0.6165385461469273	0.36308117160294023	0.28033892943235966	0.6162020902687736	0.37612191245147814	0.3030554850747408	0.5896907755789815	0.41748705798746294	0.18168093269676325	0.583334983556185	-0.15651232437127469	0.1436325061454702	0.6368591953296149	0.10752381576846765	0.25558241536466225	0.5819881116134445	0.27875218292034654	0.3172193308338669	0.5834335589875205	0.3512811112993665	0.32226556466676587	0.5974217659693272	0.38870815247805157	0.2986570556535607	0.592217601183393	0.38853656599337033
1	0.0196078431372549	0.4589113628941305	0.6826303261108035	0.28853594675309835	0.44999329598357635	0.8124716927186677	0.6658435986467752	0.49717753171935175	1.097288525335805	1.0775154865120167	0.40800035532317014	0.8839721784592041	1.140563717541188	0.47906793852651014	0.9308566880957567	1.1587898818498161	0.5089427000498474	1.1700319044854275	1.1113621203088102	0.25773413480744245	0.7715875050414532	0.2796423516875156	0.29789770573301066	0.9401998204323204	0.6581006170061777	0.3315309070895545	1.106965063794179	1.0187541212180107	0.25008606419323437	0.919310187016766	1.1195878187059873	0.23057656422046516	1.0000195884272822	1.1253673866873932	0.36129632086862	1.1699747791620982	1.072071773145785	0.34662504286611695	0.5282235022417135	-0.23217521984937073	0.3283886023793766	0.39771258790763464	-0.45091009903017204	0.28874134204069146	0.3646476595444345	-0.30727625656148744	0.47702818093407584	0.4946638679158689	-0.11498411445875839	0.526501261125241	0.5463216342299265	0.1570648372925791	0.3800143845675282	0.5793947921550022	0.30875634906544	0.2862989851808863	0.635530253883738	0.364397180343738	0.2897169465730014	0.6313877573613285	0.3815491086169055	0.3030770734133797	0.5918686879326602	0.42127623936444564	0.18176934493088162	0.5834538665426272	-0.1565339816367536	0.14379754166956243	0.6372768941417105	0.11110375741492656	0.2606514681610402	0.5825037785779006	0.2790123507024507	0.3283974046789576	0.5831116061104268	0.35215199333823216	0.33335381711628814	0.5965605543254703	0.39214207188497047	0.29833848113460804	0.590425566146717	0.39131168950100265
2	0.0392156862745098	0.4542907093853475	0.682192064967805	0.2882520414972507	0.44474970745703835	0.8104286053625505	0.664943849237403	0.496904814498539	1.0968936161412008	1.0774976319592062	0.4143743072453433	0.8776861517959228	1.139852635140649	0.47698295697671844	0.9118660574448367	1.154175994411443	0.5086332748394601	1.1685411930023266	1.1152670488866656	0.257764385645142	0.7717217340195754	0.27974522376643995	0.2980432569242884	0.9406007435655099	0.6544806321083199	0.323432724133505	1.09240594228981	1.0153883912864001	0.25025124262486287	0.9199271007920358	1.1195611321933359	0.23055781094547112	1.0000408243164816	1.1251125264319604	0.36131711408657	1.170122690871318	1.072230852661697	0.34651781956748745	0.5282031687386619	-0.2322691200397722	0.32838725522267664	0.39773885128216896	-0.4509178796444161	0.2887062835618764	0.3646425951632723	-0.307282438708205	0.4769853138219408	0.4946553574319587	-0.11501093951394273	0.5285906875993609	0.5619302312042374	0.15598064320645855	0.3872070380816317	0.5915445335403778	0.3157068023395222	0.28557291741227747	0.6355260209716078	0.36407875282322605	0.28961856670171265	0.6315288139445409	0.3815324291228699	0.30744197992347366	0.5922984713818337	0.42165328210877245	0.18176518471007336	0.5834063123633734	-0.15655485662449706	0.14834411692221286	0.6370163439246165	0.11143545168794569	0.2601566039756213	0.5671606107240073	0.27945950660556357	0.3212019871195655	0.5724612447751923	0.3517960207787432	0.324963047368418	0.5836069638006306	0.38765133816593794	0.2979158728472671	0.5903166120555118	0.3912079772763652
3	0.058823529411764705	0.4542477951932917	0.682312915770445	0.28826567553071736	0.4447497501509179	0.8106275863154089	0.6650711799251148	0.5036619796463496	1.1075920771632524	1.0763487121453514	0.41449580848199724	0.8779325144274731	1.1399776082214763	0.47725599692020076	0.9124055556006181	1.154303398835523	0.5067728268080716	1.1651847866958682	1.1100534653989005	0.25780603914348904	0.7716268607796113	0.2796685066363796	0.29805682001065864	0.9405663080493756	0.6545254116076503	0.3235266585945057	1.092397231215917	1.01530658156909	0.2502059749483049	0.9197294154321337	1.1196431668655835	0.23057636185853125	1.0001101653569229	1.125242995906743	0.3615176121583572	1.1708477820636352	1.0675626450906757	0.34646810213493323	0.5282016544780684	-0.23219368804354754	0.3283724120916161	0.3977330687579658	-0.45090427797911425	0.28872105269396303	0.36473891314961976	-0.30727097486641525	0.47699044617426295	0.49473658548255406	-0.11501261278111265	0.5266701671244983	0.5464021335309814	0.15683318416660072	0.38723932640227254	0.5914190849146921	0.3156973615490911	0.2787402654561912	0.610374410965476	0.363698791027374	0.28207513041145177	0.6183417685746411	0.3814669630180482	0.3073565290773634	0.5919918969960776	0.42167522314103173	0.18170448303765008	0.583349931889525	-0.1565334259697904	0.1484025099785931	0.6372061055840109	0.1113885794936113	0.26010443599091565	0.5670210310910759	0.27954857157783536	0.3210215538649217	0.5720307042113851	0.3517047057995898	0.32474434265323	0.5830781845202179	0.38771919691593293	0.2977395185610384	0.5902984118995576	0.39498781324078136
